<svg xmlns="http://www.w3.org/2000/svg" width="24" height="24" viewBox="0 0 24 24">
    <g>
        <path fill="rgba(0,0,0,0)" d="M0 0H24V24H0z" transform="translate(-373 -3122) translate(373 3122)"/>
        <path fill="#1d1d1d" d="M392.5 3143a1.5 1.5 0 0 1-1.5-1.5v-.5h-12v.5a1.5 1.5 0 1 1-3 0v-7.16a2.084 2.084 0 0 1 .11-.66l1.97-5.67a1.5 1.5 0 0 1 1.42-1.01h11a1.5 1.5 0 0 1 1.42 1.01l1.969 5.67a2.116 2.116 0 0 1 .111.66v7.16a1.5 1.5 0 0 1-1.5 1.5zm-2-8a1.5 1.5 0 1 0 1.5 1.5 1.5 1.5 0 0 0-1.5-1.5zm-11 0a1.5 1.5 0 1 0 1.5 1.5 1.5 1.5 0 0 0-1.5-1.5zm.72-6.5a1.012 1.012 0 0 0-.95.68L378 3133h14l-1.27-3.82a1.01 1.01 0 0 0-.949-.68z" transform="translate(-373 -3122)"/>
    </g>
</svg>
