<svg xmlns="http://www.w3.org/2000/svg" width="24" height="24" viewBox="0 0 24 24">
    <g>
        <path fill="rgba(0,0,0,0)" d="M0 0H24V24H0z" transform="translate(-780 -3166) translate(780 3166)"/>
        <path fill="#1d1d1d" d="M792 3187.469a1 1 0 0 1-.765-.36 44.2 44.2 0 0 1-3.8-5.312c-1.617-2.71-2.437-5-2.437-6.8a7 7 0 1 1 14 0c0 4.131-4.357 9.845-6.231 12.111a.993.993 0 0 1-.767.361zm0-14.969a2.5 2.5 0 1 0 2.5 2.5 2.5 2.5 0 0 0-2.5-2.5z" transform="translate(-780 -3166)"/>
    </g>
</svg>
