<svg xmlns="http://www.w3.org/2000/svg" width="24" height="24" viewBox="0 0 24 24">
    <g>
        <path fill="rgba(0,0,0,0)" d="M0 0H24V24H0z" transform="translate(-746 -1260) translate(746 1260)"/>
        <path fill="#1d1d1d" d="M766.99 1277.24v1.73a1.985 1.985 0 0 1-2.07 2 16.992 16.992 0 0 1-15.89-15.89 1.985 1.985 0 0 1 2-2.07h1.73a2 2 0 0 1 1.99 1.77l.29 2.52a1.991 1.991 0 0 1-.57 1.64l-1.85 1.85a15.045 15.045 0 0 0 6.59 6.59l1.84-1.84a1.99 1.99 0 0 1 1.64-.57l2.54.29a1.982 1.982 0 0 1 1.76 1.98z" transform="translate(-746 -1260)"/>
    </g>
</svg>
