<svg xmlns="http://www.w3.org/2000/svg" width="24" height="24" viewBox="0 0 24 24">
    <g>
        <path fill="rgba(0,0,0,0)" d="M0 0H24V24H0z" transform="translate(-271 -3122) translate(271 3122)"/>
        <path fill="#1d1d1d" d="M288.3 3143h-10.59a.5.5 0 0 1-.466-.31.488.488 0 0 1 .106-.54l1.15-1.15a3.505 3.505 0 0 1-3.5-3.5v-9.5a3.289 3.289 0 0 1 2.343-3.312 23.631 23.631 0 0 1 11.315 0A3.288 3.288 0 0 1 291 3128v9.5a3.5 3.5 0 0 1-3.5 3.5l1.15 1.149a.485.485 0 0 1 .115.54.492.492 0 0 1-.465.311zm-.8-7a1.5 1.5 0 1 0 1.5 1.5 1.5 1.5 0 0 0-1.5-1.5zm-9 0a1.5 1.5 0 1 0 1.5 1.5 1.5 1.5 0 0 0-1.5-1.5zm5.5-8v5h5v-5zm-7 0v5h5v-5z" transform="translate(-271 -3122)"/>
    </g>
</svg>
